<svg xmlns="http://www.w3.org/2000/svg" xmlns:xlink="http://www.w3.org/1999/xlink"><symbol id="icon-alarm" viewBox="0 0 32 31">
  <path d="M30.740,9.503 C29.156,5.807 26.193,2.843 22.497,1.260 C23.497,0.473 24.755,-0.000 26.126,-0.000 C29.370,-0.000 32.000,2.630 32.000,5.874 C32.000,7.245 31.527,8.503 30.740,9.503 ZM30.500,16.000 C30.500,19.852 28.988,23.343 26.537,25.940 L28.566,27.968 C28.834,28.237 29.000,28.607 29.000,29.017 C29.000,29.836 28.336,30.500 27.517,30.500 C27.107,30.500 26.736,30.334 26.468,30.065 L24.290,27.887 C21.939,29.529 19.085,30.500 16.000,30.500 C12.921,30.500 10.072,29.534 7.724,27.897 L5.561,30.060 C5.289,30.332 4.914,30.500 4.500,30.500 C3.672,30.500 3.000,29.828 3.000,28.999 C3.000,28.586 3.168,28.210 3.439,27.939 L5.451,25.927 C3.008,23.332 1.500,19.845 1.500,16.000 C1.500,7.992 7.992,1.500 16.000,1.500 C24.008,1.500 30.500,7.992 30.500,16.000 ZM16.000,4.500 C9.649,4.500 4.500,9.648 4.500,16.000 C4.500,22.351 9.649,27.500 16.000,27.500 C22.351,27.500 27.500,22.351 27.500,16.000 C27.500,9.648 22.351,4.500 16.000,4.500 ZM22.000,17.500 L16.000,17.500 C15.172,17.500 14.500,16.828 14.500,16.000 L14.500,8.000 C14.500,7.172 15.172,6.500 16.000,6.500 C16.828,6.500 17.500,7.172 17.500,8.000 L17.500,14.499 L22.000,14.499 C22.828,14.499 23.500,15.171 23.500,16.000 C23.500,16.828 22.828,17.500 22.000,17.500 ZM1.287,9.705 C0.483,8.685 -0.000,7.400 -0.000,6.000 C-0.000,2.686 2.686,-0.000 6.000,-0.000 C7.400,-0.000 8.685,0.483 9.706,1.287 C5.931,2.904 2.904,5.931 1.287,9.705 Z"/>
</symbol><symbol id="icon-book">
  <path d="M31.065,25.889 L16.594,31.877 C16.412,31.956 16.211,32.000 16.000,32.000 C15.789,32.000 15.588,31.956 15.406,31.877 L0.935,25.889 C0.387,25.666 -0.000,25.128 -0.000,24.500 L-0.000,1.500 C-0.000,0.671 0.672,0.000 1.500,0.000 C1.703,0.000 1.897,0.041 2.073,0.114 L2.074,0.114 L2.076,0.115 C2.080,0.116 2.085,0.119 2.089,0.120 L16.000,5.876 L29.911,0.120 C29.915,0.119 29.920,0.116 29.924,0.115 L29.927,0.114 L29.927,0.114 C30.103,0.041 30.297,0.000 30.500,0.000 C31.328,0.000 32.000,0.671 32.000,1.500 L32.000,24.500 C32.000,25.128 31.613,25.666 31.065,25.889 ZM14.500,8.503 L3.000,3.744 L3.000,23.497 L14.500,28.256 L14.500,8.503 ZM29.000,3.744 L17.500,8.503 L17.500,28.256 L29.000,23.497 L29.000,3.744 ZM19.879,10.634 L25.379,8.134 L25.379,8.134 C25.568,8.048 25.778,8.000 26.000,8.000 C26.828,8.000 27.500,8.671 27.500,9.500 C27.500,10.107 27.139,10.629 26.621,10.865 L26.621,10.865 L21.121,13.365 L21.121,13.365 C20.931,13.452 20.721,13.500 20.500,13.500 C19.672,13.500 19.000,12.828 19.000,12.000 C19.000,11.393 19.361,10.870 19.879,10.634 ZM19.879,16.134 L19.879,16.134 L25.379,13.634 L25.379,13.634 C25.568,13.548 25.778,13.500 26.000,13.500 C26.828,13.500 27.500,14.171 27.500,14.999 C27.500,15.607 27.139,16.129 26.621,16.365 L21.121,18.865 L21.121,18.865 C20.931,18.951 20.721,19.000 20.500,19.000 C19.672,19.000 19.000,18.328 19.000,17.500 C19.000,16.893 19.361,16.370 19.879,16.134 ZM19.879,21.634 L19.879,21.634 L25.379,19.134 L25.379,19.134 C25.568,19.048 25.778,19.000 26.000,19.000 C26.828,19.000 27.500,19.671 27.500,20.500 C27.500,21.107 27.139,21.629 26.621,21.865 L26.621,21.865 L21.121,24.365 L21.121,24.365 C20.931,24.452 20.721,24.500 20.500,24.500 C19.672,24.500 19.000,23.828 19.000,23.000 C19.000,22.393 19.361,21.870 19.879,21.634 ZM6.000,8.000 C6.221,8.000 6.431,8.048 6.621,8.134 L6.621,8.134 L12.121,10.634 L12.121,10.634 C12.639,10.870 13.000,11.393 13.000,12.000 C13.000,12.828 12.328,13.500 11.500,13.500 C11.278,13.500 11.068,13.452 10.879,13.365 L10.879,13.365 L5.379,10.865 L5.379,10.865 C4.861,10.629 4.500,10.107 4.500,9.500 C4.500,8.671 5.172,8.000 6.000,8.000 ZM6.000,13.500 C6.221,13.500 6.431,13.548 6.621,13.634 L6.621,13.634 L12.121,16.134 L12.121,16.134 C12.639,16.370 13.000,16.893 13.000,17.500 C13.000,18.328 12.328,19.000 11.500,19.000 C11.278,19.000 11.068,18.951 10.879,18.865 L10.879,18.865 L5.379,16.365 L5.379,16.365 C4.861,16.129 4.500,15.607 4.500,14.999 C4.500,14.171 5.172,13.500 6.000,13.500 ZM6.000,19.000 C6.221,19.000 6.431,19.048 6.621,19.134 L6.621,19.134 L12.121,21.634 L12.121,21.634 C12.639,21.870 13.000,22.393 13.000,23.000 C13.000,23.828 12.328,24.500 11.500,24.500 C11.278,24.500 11.068,24.452 10.879,24.365 L10.879,24.365 L5.379,21.865 L5.379,21.865 C4.861,21.629 4.500,21.107 4.500,20.500 C4.500,19.671 5.172,19.000 6.000,19.000 Z"/>
</symbol><symbol id="icon-computer" viewBox="0 0 32 28">
  <path d="M30.000,23.000 L22.500,23.000 L20.500,23.000 L20.500,25.499 L22.500,27.500 L22.500,28.000 L9.500,28.000 L9.500,27.500 L11.500,25.499 L11.500,23.000 L9.500,23.000 L2.000,23.000 C1.172,23.000 0.500,22.328 0.500,21.499 L0.500,1.500 C0.500,0.671 1.172,-0.000 2.000,-0.000 L30.000,-0.000 C30.828,-0.000 31.500,0.671 31.500,1.500 L31.500,21.499 C31.500,22.328 30.828,23.000 30.000,23.000 ZM29.500,2.000 L2.500,2.000 L2.500,19.000 L29.500,19.000 L29.500,2.000 ZM13.000,9.000 C13.414,9.000 13.789,9.168 14.061,9.439 L14.061,9.439 L15.000,10.378 L17.939,7.439 L17.939,7.439 C18.211,7.167 18.586,7.000 19.000,7.000 C19.828,7.000 20.500,7.671 20.500,8.500 C20.500,8.914 20.332,9.289 20.061,9.561 L20.061,9.561 L16.061,13.561 L16.061,13.561 C15.789,13.832 15.414,14.000 15.000,14.000 C14.586,14.000 14.211,13.832 13.939,13.561 L13.939,13.561 L11.939,11.560 L11.939,11.560 C11.668,11.289 11.500,10.914 11.500,10.500 C11.500,9.671 12.172,9.000 13.000,9.000 Z"/>
</symbol><symbol id="icon-digital" viewBox="0 0 32 32">
  <path d="M30.500,32.000 L1.500,32.000 C0.671,32.000 -0.000,31.328 -0.000,30.500 L-0.000,1.500 C-0.000,0.671 0.671,0.000 1.500,0.000 L30.500,0.000 C31.328,0.000 32.000,0.671 32.000,1.500 L32.000,30.500 C32.000,31.328 31.328,32.000 30.500,32.000 ZM29.000,3.000 L3.000,3.000 L3.000,29.000 L29.000,29.000 L29.000,3.000 ZM6.500,4.500 L12.000,4.500 L12.000,4.500 C12.828,4.500 13.500,5.171 13.500,6.000 C13.500,6.828 12.828,7.500 12.000,7.500 L12.000,7.500 L7.500,7.500 L7.500,12.000 L7.500,12.000 C7.500,12.828 6.828,13.500 6.000,13.500 C5.172,13.500 4.500,12.828 4.500,12.000 L4.500,12.000 L4.500,6.500 L4.500,6.500 L4.500,4.500 L6.500,4.500 L6.500,4.500 ZM4.500,20.000 L4.500,20.000 C4.500,19.171 5.172,18.499 6.000,18.499 C6.828,18.499 7.500,19.171 7.500,20.000 L7.500,20.000 L7.500,24.499 L12.000,24.499 L12.000,24.500 C12.828,24.500 13.500,25.171 13.500,26.000 C13.500,26.828 12.828,27.500 12.000,27.500 L12.000,27.500 L6.500,27.500 L6.500,27.500 L4.500,27.500 L4.500,25.500 L4.500,25.500 L4.500,20.000 ZM20.000,4.500 L20.000,4.500 L25.500,4.500 L25.500,4.500 L27.500,4.500 L27.500,6.500 L27.500,6.500 L27.500,12.000 L27.500,12.000 C27.500,12.828 26.828,13.500 26.000,13.500 C25.172,13.500 24.500,12.828 24.500,12.000 L24.500,12.000 L24.500,7.500 L20.000,7.500 L20.000,7.500 C19.172,7.500 18.500,6.828 18.500,6.000 C18.500,5.171 19.172,4.500 20.000,4.500 ZM20.000,24.500 L20.000,24.499 L24.500,24.499 L24.500,20.000 L24.500,20.000 C24.500,19.171 25.172,18.499 26.000,18.499 C26.828,18.499 27.500,19.171 27.500,20.000 L27.500,20.000 L27.500,25.500 L27.500,25.500 L27.500,27.500 L25.500,27.500 L25.500,27.500 L20.000,27.500 L20.000,27.500 C19.172,27.500 18.500,26.828 18.500,26.000 C18.500,25.171 19.172,24.500 20.000,24.500 Z"/>
</symbol><symbol id="icon-facebook" viewBox="0 0 13 26"><path d="M12.089.199V4.32s-3.037-.303-3.798.861c-.416.636-.169 2.5-.206 3.838h4.029c-.34 1.564-.584 2.624-.835 3.978H8.063v12.804H2.481V13.047H.106V9.019h2.349c.12-2.946.165-5.864 1.629-7.35C5.728-.002 7.297.199 12.089.199z"/></symbol><symbol id="icon-home" viewBox="0 0 32 31">
  <path d="M32.000,16.500 C32.000,17.328 31.328,17.999 30.500,17.999 C30.105,17.999 29.748,17.844 29.480,17.594 L29.477,17.598 L16.038,4.159 L16.038,4.159 L16.000,4.122 L16.000,4.122 L2.554,17.568 L2.553,17.568 C2.282,17.835 1.910,17.999 1.500,17.999 C0.672,17.999 -0.000,17.328 -0.000,16.500 C-0.000,16.075 0.177,15.692 0.461,15.419 L14.919,0.960 C15.192,0.677 15.575,0.500 16.000,0.500 L16.000,0.500 L16.000,0.500 C16.000,0.500 16.000,0.500 16.001,0.500 C16.027,0.500 16.053,0.500 16.080,0.502 C16.084,0.502 16.088,0.503 16.092,0.503 C16.115,0.504 16.137,0.506 16.160,0.508 C16.161,0.508 16.162,0.508 16.164,0.509 C16.531,0.549 16.858,0.721 17.097,0.977 L17.098,0.976 L23.000,6.878 L23.000,5.500 C23.000,4.671 23.671,4.000 24.500,4.000 C25.328,4.000 26.000,4.671 26.000,5.500 L26.000,9.878 L31.598,15.476 L31.594,15.480 C31.844,15.748 32.000,16.105 32.000,16.500 ZM29.000,19.000 L29.000,23.500 L29.000,25.500 L29.000,29.500 C29.000,30.328 28.328,31.000 27.500,31.000 L24.500,31.000 L24.500,19.000 L18.500,19.000 L18.500,31.000 L4.500,31.000 C3.672,31.000 3.000,30.328 3.000,29.500 L3.000,25.500 L3.000,23.500 L3.000,19.000 L16.000,6.000 L29.000,19.000 ZM13.500,19.000 L7.500,19.000 L7.500,25.000 L13.500,25.000 L13.500,19.000 Z"/>
</symbol><symbol id="icon-instagram" viewBox="0 0 26 26"><path d="M22.7 25.8H3.5a3.2 3.2 0 0 1-3.2-3.201V3.4A3.2 3.2 0 0 1 3.5.199h19.2A3.2 3.2 0 0 1 25.9 3.4v19.199a3.2 3.2 0 0 1-3.2 3.201zM13.1 8.039a4.957 4.957 0 0 0-4.498 2.88h-.005l-.022.055a5.23 5.23 0 0 0-.128.321c-.019.053-.04.104-.057.156a4.386 4.386 0 0 0-.095.34c-.014.053-.03.106-.042.16a4.952 4.952 0 0 0-.061.368c-.007.05-.017.099-.023.15a4.96 4.96 0 1 0 9.862 0c-.006-.051-.016-.1-.023-.15a4.952 4.952 0 0 0-.061-.368c-.012-.054-.028-.107-.042-.16a4.386 4.386 0 0 0-.095-.34c-.017-.052-.038-.103-.057-.156a5.23 5.23 0 0 0-.128-.321l-.022-.055h-.005a4.957 4.957 0 0 0-4.498-2.88zm9.92-3.68a1.28 1.28 0 0 0-1.28-1.279h-2.56a1.28 1.28 0 0 0-1.28 1.279V6.92c0 .707.573 1.28 1.28 1.28h2.56a1.28 1.28 0 0 0 1.28-1.28V4.359zm0 6.56h-2.36a7.839 7.839 0 0 1-7.56 9.92 7.839 7.839 0 0 1-7.56-9.92H3.18v10.72a1.28 1.28 0 0 0 1.28 1.281h17.28a1.28 1.28 0 0 0 1.28-1.281v-10.72z"/></symbol><symbol id="icon-line_graph" viewBox="0 0 32 32">
  <path d="M30.500,32.000 L1.500,32.000 C0.672,32.000 0.000,31.328 0.000,30.500 L0.000,1.499 C0.000,0.672 0.672,-0.000 1.500,-0.000 L30.500,-0.000 C31.328,-0.000 32.000,0.672 32.000,1.499 L32.000,30.500 C32.000,31.328 31.328,32.000 30.500,32.000 ZM29.000,3.000 L3.000,3.000 L3.000,29.000 L29.000,29.000 L29.000,3.000 ZM5.215,16.239 L5.215,16.237 L9.215,13.737 L9.215,13.739 C9.444,13.598 9.712,13.517 10.000,13.517 C10.311,13.517 10.600,13.612 10.840,13.774 L10.846,13.766 L17.477,18.186 L25.115,12.795 C25.363,12.613 25.669,12.505 26.000,12.505 C26.828,12.505 27.500,13.177 27.500,14.005 C27.500,14.505 27.255,14.948 26.878,15.221 L26.879,15.221 L18.379,21.221 L18.378,21.221 C18.132,21.400 17.828,21.505 17.500,21.505 C17.179,21.505 16.882,21.404 16.639,21.233 L9.982,16.795 L6.847,18.755 C6.606,18.920 6.314,19.017 6.000,19.017 C5.172,19.017 4.500,18.345 4.500,17.517 C4.500,16.976 4.786,16.503 5.215,16.239 Z"/>
</symbol><symbol id="icon-pinterest" viewBox="0 0 21 26"><path d="M9.051 16.854c-.209.833-.42 1.706-.638 2.56-.215.842-.405 1.696-.718 2.47-.519 1.281-1.178 2.519-2.043 3.521-.575.667-.453.401-.626.365-.132-.028-.143-.157-.169-.345-.141-1.018-.045-2.195.007-3.339.06-1.304.334-2.388.589-3.471.484-2.064.946-4.087 1.435-6.164.032-.138.12-.366.09-.445-.222-.577-.366-1.095-.429-1.701a5.415 5.415 0 0 1 .139-1.943c.277-1.058.913-1.995 1.894-2.338.624-.216 1.315-.118 1.735.132.432.259.729.667.867 1.246.148.615.039 1.351-.08 1.891-.267 1.219-.618 2.134-.937 3.31-.158.583-.337 1.182-.189 1.812.136.578.437.976.847 1.275.426.31.93.479 1.625.455 1.228-.043 2.081-.828 2.651-1.568.913-1.185 1.465-2.784 1.675-4.686.067-.614.117-1.319.07-2.014-.088-1.284-.489-2.317-1.127-3.117-.606-.763-1.466-1.369-2.512-1.711-1.037-.338-2.472-.451-3.747-.233-2.318.397-3.952 1.714-4.915 3.533a7.082 7.082 0 0 0-.837 3.41c0 1.051.259 1.865.678 2.5.133.201.328.367.458.597.185.326-.028.811-.119 1.164-.11.425-.122 1.012-.618 1.022-.206.004-.464-.146-.638-.243-1.305-.721-2.097-2.033-2.422-3.734a8.921 8.921 0 0 1 0-3.238 9.232 9.232 0 0 1 4.396-6.144C6.559 1.023 7.818.56 9.35.337a16.62 16.62 0 0 1 1.605-.132 9.65 9.65 0 0 1 4.326.81 8.839 8.839 0 0 1 2.98 2.146c.838.915 1.448 1.979 1.834 3.309.202.692.398 1.432.398 2.287 0 .858-.181 1.613-.308 2.368-.474 2.828-1.819 5.141-3.838 6.458a6.643 6.643 0 0 1-1.754.809c-.667.194-1.428.34-2.243.283a4.586 4.586 0 0 1-1.983-.577c-.54-.305-.994-.679-1.316-1.244z"/></symbol><symbol id="icon-search" viewBox="0 0 18 18">
  <path d="M17.317,14.983 C17.615,15.281 17.800,15.694 17.800,16.150 C17.800,17.061 17.061,17.800 16.150,17.800 C15.694,17.800 15.282,17.615 14.983,17.316 L14.983,17.316 L10.147,12.481 C9.165,13.061 8.023,13.400 6.800,13.400 C3.155,13.400 0.200,10.445 0.200,6.800 C0.200,3.155 3.155,0.200 6.800,0.200 C10.445,0.200 13.400,3.155 13.400,6.800 C13.400,8.023 13.061,9.165 12.481,10.147 L17.317,14.983 L17.317,14.983 ZM6.800,1.849 C4.066,1.849 1.850,4.066 1.850,6.800 C1.850,9.534 4.066,11.750 6.800,11.750 C9.534,11.750 11.750,9.534 11.750,6.800 C11.750,4.066 9.534,1.849 6.800,1.849 Z"/>
</symbol><symbol id="icon-shopping_cart" viewBox="0 0 18 15">
  <path d="M17.726,3.663 L17.727,3.663 L15.252,9.163 L15.252,9.163 C15.130,9.434 14.866,9.627 14.555,9.648 L14.555,9.648 L7.427,10.123 L7.839,11.299 L15.600,11.299 C16.511,11.299 17.250,12.038 17.250,12.950 C17.250,13.861 16.511,14.600 15.600,14.600 C14.689,14.600 13.950,13.861 13.950,12.950 L6.250,12.950 C6.250,13.861 5.511,14.600 4.600,14.600 C3.689,14.600 2.950,13.861 2.950,12.950 C2.950,12.038 3.689,11.299 4.600,11.299 L6.091,11.299 L2.915,2.225 L1.025,2.225 C0.569,2.225 0.200,1.855 0.200,1.400 C0.200,0.944 0.569,0.575 1.025,0.575 L3.500,0.575 C3.860,0.575 4.163,0.807 4.276,1.128 L4.279,1.127 L4.759,2.500 L16.975,2.500 C17.431,2.500 17.800,2.869 17.800,3.325 C17.800,3.445 17.773,3.559 17.726,3.663 ZM5.337,4.150 L6.862,8.507 L13.951,8.034 L15.699,4.150 L5.337,4.150 Z"/>
</symbol><symbol id="icon-twitter" viewBox="0 0 26 22"><path d="M17.513.601c2.034-.036 3.117.705 4.151 1.647.878-.075 2.019-.565 2.691-.907l.653-.357c-.384 1.037-.904 1.849-1.704 2.466-.178.136-.354.321-.577.408v.013c1.14-.011 2.08-.526 2.973-.805v.013c-.469.745-1.104 1.502-1.781 2.044l-.82.651c.015 1.207-.018 2.359-.243 3.373-1.312 5.895-4.788 9.897-10.289 11.612-1.976.615-5.168.868-7.432.306-1.122-.278-2.136-.593-3.087-1.009a12.156 12.156 0 0 1-1.487-.767l-.461-.28c.51.015 1.108.156 1.678.063.517-.083 1.023-.061 1.5-.165 1.188-.261 2.243-.606 3.151-1.138.441-.258 1.11-.56 1.423-.932-.59.01-1.125-.127-1.563-.281-1.699-.6-2.688-1.703-3.332-3.36.515.057 1.998.191 2.345-.102-.648-.036-1.271-.411-1.717-.69-1.367-.855-2.481-2.289-2.473-4.496l.538.255c.344.145.693.222 1.102.307.173.036.519.137.718.063h-.026c-.264-.307-.695-.512-.961-.843C1.606 6.601.785 4.924 1.304 2.926c.132-.507.341-.954.564-1.367l.026.012c.102.214.33.371.474.55.448.555 1 1.054 1.563 1.494 1.918 1.5 3.645 2.422 6.419 3.104a9.983 9.983 0 0 0 2.358.307c-.236-.687-.16-1.8.025-2.465.468-1.674 1.483-2.879 2.973-3.526a6.406 6.406 0 0 1 1.166-.358l.641-.076z"/></symbol></svg>